# xmcd
#
# Track frame offsets:
#	150
#	21017
#	32667
#	50377
#	64328
#	82225
#	97677
#	110221
#	126215
#	138552
#
# Disc length: 2117 seconds
#
# Revision: 1
# Processed by: cddbd v1.5.2PL0 Copyright (c) Steve Scherf et al.
# Submitted via: audiograbber 1.83.01
#
DISCID=8908430a
DTITLE=Various Artist - Best of Street: New Orleans X-Mas
DYEAR=2014
DGENRE=Modern Country
TTITLE0=Smoking Time Jazz Club - Christmaas Morning Blues
TTITLE1=Dixie Belle and her Stoop Stompers - Just Because
TTITLE2=Shine Delphi feat. Blind Boy Paxton - You're a Mean One Mr. Grinch
TTITLE3=Yes Ma'am feat. Blind Boy Paxton - Dirty Ol' Christmas Blues
TTITLE4=Jenavieve Cook and the Windin' Boys - I'm Going Back Home
TTITLE5=Blind Boy Paxton - Catfish Ain't Biting Blues
TTITLE6=The Kentucky Sisters - Baby It's Cold Outside
TTITLE7=Maddy and her Calypso Friends - Seven Skeletons found in the Yard
TTITLE8=Todd Day Wait's Pigpen - I'm Trimming the Christmas Tree With Teardrops
TTITLE9=The Original Pinettes - O Holy Night
EXTD=
EXTT0=
EXTT1=
EXTT2=
EXTT3=
EXTT4=
EXTT5=
EXTT6=
EXTT7=
EXTT8=
EXTT9=
PLAYORDER=
